<svg id="Layer_1" data-name="Layer 1" xmlns="http://www.w3.org/2000/svg" xmlns:xlink="http://www.w3.org/1999/xlink" width="950.86" height="416.62" viewBox="0 0 950.86 416.62">
  <g id="sole">
    <path d="M945.65,297.65l4.46,5.94c2.94,10.47-3.69,14.69-3.71,25.23v29.69q1.85,14.48,3.71,29c-.74,4.52-4,10.2-7.43,11.88-16,7.82-40.13,4.2-59.38,7.42-53.14,8.89-111.85,8.91-173,8.91l-492.81.65-34.93-.7c-40.64-7-85.82-9.84-124-19.3-19.08-4.74-46.17-5.45-57.89-17.81V344.37c23,12.78,89.64,29.71,125.44,25.24l3-23c54.28,7.27,124.73,9.5,181.11.74L400,340.67c47.1-7.52,96.52-5.3,141.82-12.59,64.06-10.29,131.25-1.81,196.7-11.87,52.06-8,108.6-.3,158.85-8.17C915.3,305.24,938,310.45,945.65,297.65Z" fill="currentColor"/>
  </g>
  <g id="back">
    <path d="M904.83,63.83c6.38,2.94,8.34,3.07,13.36,18.56,4.07,12.83,4.45,22.27,5.94,34.14l18.55,49c2.73,6.74,7.26,22,5.2,27.47-.5,1-1,2-1.48,3-19.29,8.85-29.63-16.34-65.32-10.39-46.19,7.69-98.46,49.77-130.64-5.94.49-.74,3.21-.74,3.71-1.49,44.83-6.85,94.38-17.63,122.47-50.47C891.33,110.47,886.75,77,904.83,63.83Z" fill="currentColor"/>
  </g>
  <g id="main">
    <path d="M569.32,106.14c12.37,4.06,43.66,26,57.9,34.89,35.33,22,69.6,41.18,124,37.86,34,55.17,80.48,15.05,130.64,5.93,20-3.63,32.75,5.25,45.28,9.65,7.25,2.56,14.82,1.07,20,4.46,4.15,16.45,2.45,93-4.46,104.66-56.29,13.07-124,7.15-182.59,10.39-15.82,2.1-30,3.63-46,5.19a271.27,271.27,0,0,1-28.21,1.49c-22.52,2.48-65.06.89-72,1.48-80.89,6.94-110.62,9.5-191.51,16.33-35.75,4.31-55.36,4.85-88.33,8.17-27.73,2.79-63.32,5.63-94.26,6.68-17.79.6-52.53-.09-70.52-2.23-12.13-1.44-36.18-2.86-39.34-5.19-1.21-.67,2.46-25.08,3.71-33.41,2.11-14.06,3.78-31.28,11.88-39.34,11.59-11.53,87.43-22.63,93.52-24.49,95.53-29.23,191.53-77.09,189.26-73.49,8.41-4.94,18.31-9.89,26.72-14.84C493.31,142.69,529.07,128.87,569.32,106.14Z" fill="currentColor"/>
  </g>
  <g id="front">
    <path d="M155.14,245.69c3.27,8.31-13.37,18.07-8.91,26-1.46,3.25-6.89,8.15-10.39,23.75-3.36,24.23-6.43,48.5-9.65,72.74-10.52,5-44-.17-54.93-2.22-31.48-5.94-46.89-6.5-69.77-20.79-3.37-13.76,1.33-25.95,5.19-36.37,5.23-18.59,12.44-35.55,42.31-45.28C80.74,253.16,124.93,264.66,155.14,245.69Z" fill="currentColor"/>
  </g>
  <g id="interior">
    <path d="M570.07,105.37l72,45.28s32,18.33,57.15,24.49,45,4.53,57.9,3c13.64-1.65,62.37-11.28,83.13-23s36.55-25.91,41.57-34.88C888.33,108.62,892.65,80,895.18,75c2.31-4.56,8.39-8.09,10.39-11.14s.18-3.15-2.23-7.42-11.21-3.67-11.87-3.71S879.39,54,870.68,60.13s-11.21,12.46-14.1,23.76-4.14,14.38-11.77,21.26c-6.85,6.18-16.33,12.64-50.58,19.56-11.27,2.28-12.79,3.37-46,5.94s-44.63.29-52-.74-21.48-1.4-58.64-23C635,108.45,627.2,117.3,627.2,117.3s-27.37-18.62-43-29.69c-15.94-11.25-33.12-17.9-46-17.82,18.17,7.08,37.51,26.23,37.85,29.69S570.07,105.37,570.07,105.37Z" fill="currentColor"/>
  </g>
  <g id="laces">
    <path d="M147,270.18l-1.48-4.45,8.91-14.1,1.48-7.43s14.54-22.44,17.81-26,3.72-5.94,3.72-5.94L190,201.87l5.2-.75,5.2-4.45h4.45s16.06-10.91,23.75-14.1a35,35,0,0,1,13.36-3l5.2.74,7.42-3,11.14-4.45,8.9-6.68,11.92-5.11,15.59-3,6.68-4.45,6.68-5.94,5.94-2.23,9.64-.74,22.27-11.88,3-4.45,7.42-5.19,18.56-8.91,11.14-4.46,10.39-3.71,4.45-1.48,8.91-7.42,5.94-5.94L435,86.07l6.68-.74,6.68-4.45,36.37-26.73,17.79-12.58,23.75-13.36,18.56-11.14L562.68,1.48,567.14,0l6.68.74,5.93,4.45L616.87,49l20.78,32.66,3,10.39v12.62l-7.42,10.39-4.46,3L590.92,92.81l-16.36-11.9s-32.21-14.57-37.11-10.4c.63,0,9.55-3.49,40.08,29.7.38.41-28.21,17.81-28.21,17.81l-34.88,15.59L481.74,147,452,161.81l-32.66,17.82-32.66,12.62-42.3,19.3-19.3,8.16-5.2.74-24.49,10.39L262,243.46l-23.75,5.91-29,5.2-28.95,5.93-22.26,7.43Z" fill="currentColor"/>
  </g>
  <g id="shadow">
    <image id="shadow_copy_3_Image" data-name="shadow copy 3 Image" width="1282" height="562" transform="translate(0 0.74) scale(0.74)" xlink:href="shoe.png" style="isolation: isolate"/>
  </g>
</svg>
