<svg id="Layer_1" data-name="Layer 1" xmlns="http://www.w3.org/2000/svg" xmlns:xlink="http://www.w3.org/1999/xlink" width="948.68" height="415.88" viewBox="0 0 948.68 415.88">
  <g id="sole">
    <path d="M943,298.2l3.52,5.87c.56,4.8.13,10.43-2.87,12.91-.9.74.39,6.65,0,12l.52,33.39c1.24,9.65,3.17,15.91,2.09,25.83a10.3,10.3,0,0,1-6.26,8.47c-20.09,7.31-57,8.48-79.34,11-48.81,4.89-57.88,4.89-150.4,8l-493.78.19-42.46-2.54c-40.64-7-71-9.12-110.54-16.43C44.44,392.2,14.21,387.4.67,377.37v-33c23,12.78,89.64,29.71,125.44,25.24l3-23c54.28,7.27,124.73,9.5,181.11.74L400,340.67c47.1-7.52,96.52-5.3,141.82-12.59,64.06-10.29,131.6-8,196.7-11.87,52.52-3.91,108.09-4.58,158.85-8.17C915.3,305.24,928.69,306.4,943,298.2Z" transform="translate(0 -0.74)" fill="currentColor"/>
  </g>
  <g id="back">
    <path d="M903.05,62.24c6.38,2.94,7.58,5.77,12.6,21.26,4.07,12.83,6.52,21.08,6.13,32.54l19.82,49.63c2.73,6.74,7,22.19,5,27.66-.5,1-1.87,1.34-2.35,2.34-23.87,7.44-32.35-12-68-9.65-46.19,7.69-92.87,51.26-125.82-6.35.49-.74,3.21-.74,3.71-1.49,44.83-6.85,99.8-23.59,119-48.62C891.91,107.24,882.78,76.46,903.05,62.24Z" transform="translate(0 -0.74)" fill="currentColor"/>
  </g>
  <g id="main">
    <path d="M568.62,104.58c12.37,4.06,43.66,26,57.9,34.89,35.33,22,69.6,41.18,124,37.86,34,55.17,80.48,15,130.64,5.93,20-3.63,32.75,5.25,45.28,9.65,7.25,2.56,12.72,1.07,17.9,4.46,6.52,17,2.35,92.43-4.56,104.09-56.29,13.07-121.54,11.24-180.13,14.48-15.82,2.1-30.26.11-46.26,1.67a271.12,271.12,0,0,1-28.21,1.49c-22.52,2.48-64.79,2.8-71.73,3.39-80.89,6.94-110.79,8.52-191.68,15.35-35.75,4.31-55.46,3.92-88.43,7.24-27.73,2.79-63.32,5.63-94.26,6.68-17.79.6-52.53-.09-70.52-2.23-12.13-1.44-36.18-2.86-39.34-5.19-1.21-.67,2.46-25.08,3.71-33.41,2.11-14.06,3.78-31.28,11.88-39.34,11.59-11.53,87.43-22.63,93.52-24.49,95.53-29.23,191.53-77.09,189.26-73.49,8.41-4.94,18.31-9.89,26.72-14.84C492.61,141.13,528.37,127.31,568.62,104.58Z" transform="translate(0 -0.74)" fill="currentColor"/>
  </g>
  <g id="front">
    <path d="M155.14,245.69c3.27,8.31-13.37,18.07-8.91,26-1.46,3.25-6.89,8.15-10.39,23.75-3.36,24.23-6.43,48.5-9.65,72.74-10.52,5-44-.17-54.93-2.22-31.48-5.94-46.89-6.5-69.77-20.79-3.37-13.76,1.33-25.95,5.19-36.37,5.23-18.59,12.44-35.55,42.31-45.28C80.74,253.16,124.93,264.66,155.14,245.69Z" transform="translate(0 -0.74)" fill="currentColor"/>
  </g>
  <g id="interior">
    <path d="M570.07,105.37l72,45.28s32,18.33,57.15,24.49,43.61,4.19,56.51,2.66c13.64-1.65,61.76-14.18,83.55-23.86,24.65-11,35.09-25.67,40.11-34.64,6.51-11.64,9.79-41.19,12.32-46.17C894,68.57,899.49,66,901.49,63s2.22-.82-.19-5.09-9.17-5.12-9.83-5.16S879.39,54,870.68,60.13s-11.21,12.46-14.1,23.76-4.14,14.38-11.77,21.26c-6.85,6.18-16.33,12.64-50.58,19.56-11.27,2.28-12.79,3.37-46,5.94s-44.63.29-52-.74-21.48-1.4-58.64-23C635,108.45,627.2,117.3,627.2,117.3s-27.37-18.62-43-29.69c-15.94-11.25-33.12-17.9-46-17.82,18.17,7.08,37.51,26.23,37.85,29.69S570.07,105.37,570.07,105.37Z" transform="translate(0 -0.74)" fill="currentColor"/>
  </g>
  <g id="laces">
    <path d="M147,270.18l-1.48-4.45,8.91-14.1,1.48-7.43s14.54-22.44,17.81-26,3.72-5.94,3.72-5.94L190,201.87l5.2-.75,5.2-4.45h4.45s16.06-10.91,23.75-14.1a35,35,0,0,1,13.36-3l5.2.74,7.42-3,11.14-4.45,8.9-6.68,11.92-5.11,15.59-3,6.68-4.45,6.68-5.94,5.94-2.23,9.64-.74,22.27-11.88,3-4.45,7.42-5.19,18.56-8.91,11.14-4.46,10.39-3.71,4.45-1.48,8.91-7.42,5.94-5.94L435,86.07l6.68-.74,6.68-4.45,36.37-26.73,17.79-12.58,23.75-13.36,18.56-11.14L562.68,1.48l3.86-.15,6.85.58,4.3,4.5L614.08,50l22.5,33.46L640.65,92,638,103.55l-4.72,11.5-4.46,3L590.92,92.81l-16.36-11.9s-32.21-14.57-37.11-10.4c.63,0,9.55-3.49,40.08,29.7.38.41-28.21,17.81-28.21,17.81l-34.88,15.59L481.74,147,452,161.81,418.33,180l-31.24,10.56-42.67,21-19.3,8.16-5.2.74-26.84,9.79L262,243.46l-23.75,5.91-29,5.2-28.95,5.93-22.26,7.43Z" transform="translate(0 -0.74)" fill="currentColor"/>
  </g>
  <g id="shadow">
    <image id="shadow_copy_3_Image" data-name="shadow copy 3 Image" width="1282" height="562" transform="scale(0.74)" xlink:href="shoe.png" style="isolation: isolate"/>
  </g>
</svg>
